<svg width="56" height="56" viewBox="0 0 56 56" fill="none" xmlns="http://www.w3.org/2000/svg">
<path d="M14.8043 18.2978C15.2542 14.249 15.4791 12.2246 16.4168 10.699C17.2314 9.37369 18.4146 8.31462 19.8218 7.65142C21.4416 6.88794 23.4785 6.88794 27.5521 6.88794C31.6258 6.88794 33.6626 6.88794 35.2825 7.65142C36.6897 8.31462 37.8729 9.37369 38.6875 10.699C39.6252 12.2246 39.8501 14.249 40.2999 18.2978L40.9426 24.0814C41.1346 25.81 41.2307 26.6743 41.5066 27.4918C41.7826 28.3093 42.23 29.055 43.1248 30.5464L46.3988 36.0031C47.2046 37.346 47.6075 38.0175 47.3202 38.5248C47.033 39.0321 46.25 39.0321 44.6838 39.0321H10.4204C8.85434 39.0321 8.07128 39.0321 7.78405 38.5248C7.49682 38.0175 7.8997 37.346 8.70546 36.0031L11.9795 30.5464C12.8743 29.055 13.3217 28.3093 13.5977 27.4918C13.8736 26.6743 13.9697 25.81 14.1617 24.0814L14.8043 18.2978Z" stroke="white" stroke-width="4"/>
<path d="M18.368 39.0323C18.368 40.2383 18.6056 41.4326 19.0671 42.5469C19.5286 43.6611 20.2051 44.6736 21.058 45.5264C21.9108 46.3792 22.9232 47.0557 24.0375 47.5172C25.1517 47.9788 26.346 48.2163 27.552 48.2163C28.7581 48.2163 29.9524 47.9788 31.0666 47.5172C32.1809 47.0557 33.1933 46.3792 34.0461 45.5264C34.899 44.6735 35.5755 43.6611 36.037 42.5469C36.4985 41.4326 36.7361 40.2383 36.7361 39.0323" stroke="white" stroke-width="4" stroke-linecap="round"/>
</svg>
