<svg id="Слой_1" data-name="Слой 1" xmlns="http://www.w3.org/2000/svg" viewBox="0 0 1488.47 93.18"><defs><style>.cls-1{fill:#03a9f4;}</style></defs><path class="cls-1" d="M29.19,959.94,15,953.48a56.84,56.84,0,0,0-11.27-3.67c-16.22-3.54-26.89-12.26-26.89-22V55.91c0-24.66,47.47-40.27,86.2-28.35a100.19,100.19,0,0,0,53.54.76L155.6,17.71c37-10,81.29-6.35,111.39,9.3L272.66,30c32.07,16.66,81,18.07,116,3.33,29.62-12.49,69.95-13.58,101.6-2.76l22,7.53c36.82,12.59,83.53,11.81,118.94-2,36.41-14.19,84.67-14.57,121.79-1l5.71,2.09c35.46,13,81.65,12.39,116-1.51s80.52-14.51,116-1.52l7.14,2.62c36.3,13.3,83.44,13,119.19-.75l1.43-.55c35.8-13.77,83.19-13.69,118.85.2s83,14,118.86.19l2.11-.81c35.47-13.65,82.11-14.21,118.61-1.45l11.65,4.07c37.53,13.13,60.32,36.09,60.32,60.79V925.16c0,28.65-53.88,47.37-100,34.77a119.76,119.76,0,0,0-63.54.68l-29,8.72c-36.75,11-81.39,10-116.31-2.77l-1.19-.44c-36.94-13.48-84.66-13.56-121.73-.19-36.12,13-82.47,13.31-119.11.73L993,965c-37.3-12.81-84.63-12.21-120.84,1.54-33.65,12.77-77.12,14.27-113.32,3.9l-7.94-2.27c-37.19-10.64-81.41-10.33-118.09.84l-1.66.5c-36.61,11.14-80.6,11.79-118.22,1.74l-23.18-6.19c-32.52-8.69-70.67-7.77-101.72,2.46l-2,.65c-35.29,11.62-79.5,10.68-113.09-2.41-34-13.26-78.84-14-114.28-2l-3,1C116,978.24,65.28,976.32,29.19,959.94Z"/></svg>