<svg width="85" height="74" viewBox="0 0 85 74" fill="none" xmlns="http://www.w3.org/2000/svg">
<path d="M49.5833 61.6667L47.9418 63.5523L49.5833 64.9814L51.2249 63.5523L49.5833 61.6667ZM21.25 9.83341C19.8693 9.83341 18.75 10.9527 18.75 12.3334C18.75 13.7141 19.8693 14.8334 21.25 14.8334L21.25 12.3334L21.25 9.83341ZM31.875 46.2501L30.2335 48.1356L47.9418 63.5523L49.5833 61.6667L51.2249 59.7812L33.5165 44.3645L31.875 46.2501ZM49.5833 61.6667L51.2249 63.5523L68.9332 48.1356L67.2917 46.2501L65.6501 44.3645L47.9418 59.7812L49.5833 61.6667ZM49.5833 61.6667L52.0833 61.6667L52.0833 18.3334L49.5833 18.3334L47.0833 18.3334L47.0833 61.6667L49.5833 61.6667ZM43.5833 12.3334L43.5833 9.83341L21.25 9.83341L21.25 12.3334L21.25 14.8334L43.5833 14.8334L43.5833 12.3334ZM49.5833 18.3334L52.0833 18.3334C52.0833 13.639 48.2777 9.83341 43.5833 9.83341L43.5833 12.3334L43.5833 14.8334C45.5163 14.8334 47.0833 16.4004 47.0833 18.3334L49.5833 18.3334Z" fill="white"/>
</svg>
