<svg width="16" height="28" viewBox="0 0 16 28" fill="none" xmlns="http://www.w3.org/2000/svg">
<path d="M7.01819 16.6622H2.52305C1.11461 16.6622 0.410396 16.6622 0.115468 16.2007C-0.179459 15.7391 0.1164 15.1001 0.708119 13.822L6.56446 1.17228C6.93864 0.364032 7.12574 -0.0400913 7.32196 0.00312787C7.51819 0.046347 7.51819 0.491677 7.51819 1.38234V10.3122C7.51819 10.5479 7.51819 10.6658 7.59141 10.739C7.66463 10.8122 7.78249 10.8122 8.01819 10.8122H12.5133C13.9218 10.8122 14.626 10.8122 14.9209 11.2738C15.2158 11.7353 14.92 12.3744 14.3283 13.6525L8.47192 26.3021C8.09773 27.1104 7.91064 27.5145 7.71441 27.4713C7.51819 27.4281 7.51819 26.9827 7.51819 26.0921V17.1622C7.51819 16.9265 7.51819 16.8087 7.44497 16.7354C7.37174 16.6622 7.25389 16.6622 7.01819 16.6622Z" fill="white"/>
</svg>
