<svg width="115" height="60" viewBox="0 0 115 60" fill="none" xmlns="http://www.w3.org/2000/svg">
<path fill-rule="evenodd" clip-rule="evenodd" d="M112.1 0C106 0 100 1.7 94.9 5C92 6.9 89.3 9.2 87.1 11.9C84.4 9.9 81.3 8.4 78 7.6C75.2 6.9 72.4 6.7 69.5 7C72.4 7.3 75.3 8.1 78 9.4C82.1 11.4 85.6 14.4 88.1 18.2C88.7 16.9 89.4 15.7 90.2 14.5C92.6 10.9 95.6 7.8 99.2 5.4C103.8 2.3 109.1 0.5 114.6 0.1C113.7 0 112.9 0 112.1 0Z" fill="white"/>
<path fill-rule="evenodd" clip-rule="evenodd" d="M74 27.8999V56.0999H71.5C70.2 56.0999 69.1 54.9999 69 53.6999V27.8999H64V52.1999C64 56.3999 67.4 59.8999 71.5 59.8999H79V27.8999H74ZM59 35.5999C59 31.3999 55.6 27.8999 51.5 27.8999H44V59.8999H49V45.8999H51.5C52.8 45.8999 53.9 46.9999 54 48.2999V59.8999H59V49.3999C59 47.1999 58.1 45.0999 56.4 43.5999C58.1 42.0999 59 39.9999 59 37.7999V35.5999ZM53.5 40.9999C53 41.5999 52.3 41.8999 51.6 41.8999H49V31.8999H51.6C52.4 31.8999 53.2 32.2999 53.7 32.9999C54.3 33.7999 54.7 35.2999 54.7 36.8999C54.7 38.5999 54.3 40.0999 53.6 40.8999C53.6 40.9999 53.5 40.9999 53.5 40.9999ZM36 54.8999H41V59.8999H36V54.8999ZM26 27.8999H21V59.8999H33V54.8999H26V27.8999ZM8.8 46.6999L5.1 27.8999H0L6.2 59.8999H11.3L17.5 27.8999H12.4L8.8 46.6999Z" fill="white"/>
</svg>
