<svg width="57" height="57" viewBox="0 0 57 57" fill="none" xmlns="http://www.w3.org/2000/svg">
<path d="M45.3668 40.375C47.1149 41.4581 48.0352 42.6868 48.0352 43.9375C48.0352 45.1882 47.1149 46.4169 45.3668 47.5C43.6187 48.5831 41.1044 49.4826 38.0767 50.1079C35.0489 50.7333 31.6143 51.0625 28.1182 51.0625C24.622 51.0625 21.1874 50.7333 18.1596 50.1079C15.1319 49.4826 12.6176 48.5831 10.8695 47.5C9.12142 46.4169 8.20113 45.1882 8.20113 43.9375C8.20113 42.6868 9.12142 41.4581 10.8695 40.375" stroke="white" stroke-width="2" stroke-linecap="round"/>
<path d="M45.692 23.75C45.692 36.3733 31.2641 44.6446 28.5541 46.0869C28.2806 46.2324 27.9557 46.2324 27.6822 46.0869C24.9722 44.6446 10.5443 36.3733 10.5443 23.75C10.5443 13.0625 19.0594 5.9375 28.1182 5.9375C37.4909 5.9375 45.692 13.0625 45.692 23.75Z" stroke="white" stroke-width="2"/>
<path d="M28.1185 15.25C32.7298 15.2502 36.4906 19.0429 36.4906 23.75C36.4906 28.4571 32.7298 32.2498 28.1185 32.25C23.507 32.25 19.7454 28.4572 19.7454 23.75C19.7454 19.0428 23.507 15.25 28.1185 15.25Z" stroke="white" stroke-width="2"/>
</svg>
