<svg width="96" height="98" viewBox="0 0 96 98" fill="none" xmlns="http://www.w3.org/2000/svg">
<path d="M32.3846 38.6812H26.6137C24.3857 38.6812 22.5796 40.5394 22.5796 42.8317V85.8941C22.5796 88.1864 24.3857 90.0447 26.6137 90.0447H32.3846C34.6126 90.0447 36.4187 88.1864 36.4187 85.8941V42.8317C36.4187 40.5394 34.6126 38.6812 32.3846 38.6812Z" fill="white"/>
<path d="M50.5101 38.6812H44.7392C42.5112 38.6812 40.7051 40.5394 40.7051 42.8317V85.8941C40.7051 88.1864 42.5112 90.0447 44.7392 90.0447H50.5101C52.7381 90.0447 54.5442 88.1864 54.5442 85.8941V42.8317C54.5442 40.5394 52.7381 38.6812 50.5101 38.6812Z" fill="white"/>
<path d="M68.2152 38.6812H62.4442C60.2163 38.6812 58.4102 40.5394 58.4102 42.8317V85.8941C58.4102 88.1864 60.2163 90.0447 62.4442 90.0447H68.2152C70.4432 90.0447 72.2493 88.1864 72.2493 85.8941V42.8317C72.2493 40.5394 70.4432 38.6812 68.2152 38.6812Z" fill="white"/>
<path d="M33.2812 6.97534C32.389 7.61081 31.6448 8.44191 31.1022 9.40882C30.5597 10.3757 30.2323 11.4544 30.1436 12.5671C30.1436 15.19 32.4127 15.9395 33.9535 20.3783C34.7264 22.1888 35.0072 24.1812 34.7659 26.143C34.3077 28.42 33.0885 30.4597 31.3202 31.9077" stroke="white" stroke-width="2" stroke-miterlimit="10"/>
<path d="M47.9328 7.63818C47.0359 8.2661 46.2897 9.09598 45.7509 10.0649C45.2121 11.0337 44.8948 12.1161 44.8232 13.2299C44.8232 15.8529 47.0644 16.6023 48.6052 21.0411C49.3863 22.8493 49.6767 24.8414 49.4456 26.8058C48.9756 29.085 47.747 31.1239 45.9718 32.5705" stroke="white" stroke-width="2" stroke-miterlimit="10"/>
<path d="M62.9484 6.97534C62.0462 7.60018 61.2946 8.42871 60.7509 9.39776C60.2071 10.3668 59.8856 11.4508 59.8108 12.5671C59.8108 15.19 62.0519 15.9395 63.5927 20.3783C64.3766 22.1857 64.6671 24.1785 64.4332 26.143C63.9677 28.424 62.7382 30.4644 60.9594 31.9077" stroke="white" stroke-width="2" stroke-miterlimit="10"/>
</svg>
