<svg width="32" height="31" viewBox="0 0 32 31" fill="none" xmlns="http://www.w3.org/2000/svg">
<path d="M9.33337 9.00876V7.10414C9.33337 4.97262 9.33337 3.90686 10.0174 3.30916C10.7014 2.71147 11.7576 2.8544 13.8698 3.14028L22.8047 4.34951C25.2804 4.68456 26.5182 4.85209 27.2591 5.70002C28 6.54795 28 7.79707 28 10.2953V20.0205C28 22.5187 28 23.7678 27.2591 24.6158C26.5182 25.4637 25.2804 25.6312 22.8047 25.9663L13.8698 27.1755C11.7576 27.4614 10.7014 27.6043 10.0174 27.0066C9.33337 26.4089 9.33337 25.3432 9.33337 23.2117V21.557" stroke="white" stroke-width="3"/>
<path d="M21.3334 15.1579L22.4794 14.1901L23.2966 15.1579L22.4794 16.1257L21.3334 15.1579ZM5.33337 16.6579C4.50495 16.6579 3.83337 15.9863 3.83337 15.1579C3.83337 14.3295 4.50495 13.6579 5.33337 13.6579V15.1579V16.6579ZM16 8.84211L17.1461 7.87433L22.4794 14.1901L21.3334 15.1579L20.1873 16.1257L14.854 9.80988L16 8.84211ZM21.3334 15.1579L22.4794 16.1257L17.1461 22.4415L16 21.4737L14.854 20.5059L20.1873 14.1901L21.3334 15.1579ZM21.3334 15.1579V16.6579H5.33337V15.1579V13.6579H21.3334V15.1579Z" fill="white"/>
</svg>
