<svg width="43" height="43" viewBox="0 0 43 43" fill="none" xmlns="http://www.w3.org/2000/svg">
<path d="M8.80854 34.0821C11.3079 36.5814 14.4922 38.2835 17.9588 38.973C21.4255 39.6626 25.0188 39.3087 28.2843 37.9561C31.5498 36.6034 34.3409 34.3128 36.3046 31.374C38.2683 28.4351 39.3164 24.9799 39.3164 21.4453C39.3164 17.9107 38.2683 14.4556 36.3046 11.5167C34.3409 8.57778 31.5498 6.2872 28.2843 4.93458C25.0188 3.58195 21.4255 3.22805 17.9588 3.91761C14.4922 4.60717 11.3079 6.30922 8.80854 8.80854" stroke="white" stroke-width="3"/>
<path d="M26.8066 21.4453L27.9779 20.5083L28.7276 21.4453L27.9779 22.3824L26.8066 21.4453ZM5.36133 22.9453C4.5329 22.9453 3.86133 22.2737 3.86133 21.4453C3.86133 20.6169 4.5329 19.9453 5.36133 19.9453V21.4453V22.9453ZM19.6582 12.5098L20.8295 11.5727L27.9779 20.5083L26.8066 21.4453L25.6353 22.3824L18.4869 13.4468L19.6582 12.5098ZM26.8066 21.4453L27.9779 22.3824L20.8295 31.3179L19.6582 30.3809L18.4869 29.4438L25.6353 20.5083L26.8066 21.4453ZM26.8066 21.4453V22.9453H5.36133V21.4453V19.9453H26.8066V21.4453Z" fill="white"/>
</svg>
