<svg width="115" height="60" xmlns="http://www.w3.org/2000/svg"><g fill="none" fill-rule="evenodd"><path d="M112.07.058a31.977 31.977 0 0 0-17.196 4.991 32.251 32.251 0 0 0-7.753 6.895 25.094 25.094 0 0 0-9.08-4.26 25.264 25.264 0 0 0-8.459-.593 25.04 25.04 0 0 1 8.459 2.384 25.25 25.25 0 0 1 10.067 8.804 32.008 32.008 0 0 1 2.058-3.656 32.244 32.244 0 0 1 9.022-9.136 31.952 31.952 0 0 1 15.38-5.334 32.692 32.692 0 0 0-2.499-.095" fill="#0F9AEF"/><path d="M74.035 28v28.247h-2.5c-1.333 0-2.42-1.07-2.493-2.415L69.035 28h-5v24.32c0 4.241 3.358 7.68 7.5 7.68h7.5V28h-5ZM59 35.68c0-4.242-3.358-7.68-7.5-7.68H44v32h5V46h2.5c1.333 0 2.42 1.074 2.493 2.42L54 60h5V49.48a7.737 7.737 0 0 0-2.612-5.823A7.738 7.738 0 0 0 59 37.835V35.68Zm-5.493 5.47a2.555 2.555 0 0 1-1.936.885H49V32h2.57a2.554 2.554 0 0 1 2.107 1.106c.593.827.988 2.27.988 3.914 0 1.706-.424 3.192-1.054 4.002a4.396 4.396 0 0 1-.104.128ZM36 55h5v5h-5v-5ZM26 28h-5v32h12v-5h-7V28ZM8.818 46.835 5.14 28H0l6.246 32h5.143l6.246-32h-5.141L8.818 46.835Z" fill="#F97D41"/></g></svg>