<svg id="Слой_1" data-name="Слой 1" xmlns="http://www.w3.org/2000/svg" viewBox="0 0 1488.47 93.18"><defs><style>.cls-1{fill:#03a9f4;}.cls-2{fill:#ff7143;}</style></defs><rect class="cls-1" width="1488.47" height="93.18"/><path class="cls-2" d="M1476.82,33.62c-36.5-12.76-83.14-12.2-118.61,1.45l-2.11.81c-35.81,13.78-83.2,13.7-118.86-.19s-83-14-118.85-.2L1117,36c-35.75,13.75-82.89,14-119.19.75l-7.14-2.62c-35.46-13-81.65-12.39-116,1.52s-80.52,14.5-116,1.51l-5.67-2c-37.12-13.6-85.38-13.22-121.79,1-35.41,13.79-82.12,14.57-118.94,2l-22-7.53c-31.65-10.82-72-9.73-101.6,2.76-35,14.74-83.89,13.33-116-3.33L267,27c-30.1-15.65-74.39-19.35-111.39-9.3L116.53,28.32A100.2,100.2,0,0,1,63,27.56C41.48,20.94,17.27,22.82,0,30V93.18H1488.47V37.69Z"/></svg>