<svg width="20" height="26" viewBox="0 0 20 26" fill="none" xmlns="http://www.w3.org/2000/svg">
<path d="M9.28027 0.25296C9.64195 -0.0843227 10.192 -0.0843227 10.5537 0.25296C12.7435 2.29507 19.834 9.42149 19.834 16.0703C19.8337 21.0999 15.3936 25.1768 9.91699 25.1768C4.44034 25.1768 0.000284189 21.0999 0 16.0703C0 9.42149 7.09045 2.29507 9.28027 0.25296ZM4.7334 15.5381C4.46054 15.5795 4.27224 15.8345 4.31348 16.1075C4.4953 17.3102 5.06 18.4229 5.92285 19.2803C6.78571 20.1376 7.90168 20.695 9.10547 20.8692C9.37872 20.9087 9.63228 20.7186 9.67188 20.4453C9.71132 20.1722 9.52217 19.9186 9.24902 19.8789C8.25753 19.7355 7.33759 19.2765 6.62695 18.5703C5.91664 17.8643 5.45247 16.9483 5.30273 15.958C5.26148 15.685 5.00641 15.4969 4.7334 15.5381Z" fill="#F5F5F5"/>
</svg>
